<svg width="185" height="60" viewBox="0 0 185 60" fill="none" xmlns="http://www.w3.org/2000/svg">
<rect width="185" height="60" rx="5" fill="#2B2B2B"/>
<path d="M76.7227 39L75.3262 35.0352H69.8672L68.4707 39H66L71.3125 24.6641H73.9102L79.2129 39H76.7227ZM74.7207 33.0234L73.3633 29.1172C73.3112 28.9479 73.2363 28.7103 73.1387 28.4043C73.041 28.0918 72.9434 27.776 72.8457 27.457C72.748 27.1315 72.6667 26.8581 72.6016 26.6367C72.5365 26.9036 72.4551 27.2031 72.3574 27.5352C72.2663 27.8607 72.1751 28.1667 72.084 28.4531C71.9993 28.7396 71.9342 28.9609 71.8887 29.1172L70.5215 33.0234H74.7207ZM86.4102 27.9844C87.6927 27.9844 88.7214 28.4531 89.4961 29.3906C90.2773 30.3281 90.668 31.7214 90.668 33.5703C90.668 34.7943 90.4857 35.8262 90.1211 36.666C89.763 37.4993 89.2585 38.1309 88.6074 38.5605C87.9629 38.9837 87.2109 39.1953 86.3516 39.1953C85.8047 39.1953 85.3294 39.1237 84.9258 38.9805C84.5221 38.8372 84.1771 38.6517 83.8906 38.4238C83.6042 38.1895 83.3633 37.9355 83.168 37.6621H83.0312C83.0638 37.9225 83.0931 38.2122 83.1191 38.5312C83.1517 38.8438 83.168 39.1302 83.168 39.3906V43.7949H80.8633V28.1895H82.7383L83.0605 29.6836H83.168C83.3698 29.3776 83.6139 29.0944 83.9004 28.834C84.1934 28.5736 84.5449 28.3685 84.9551 28.2188C85.3717 28.0625 85.8568 27.9844 86.4102 27.9844ZM85.7949 29.8594C85.1634 29.8594 84.6556 29.9863 84.2715 30.2402C83.8939 30.4876 83.6172 30.862 83.4414 31.3633C83.2721 31.8646 83.181 32.4928 83.168 33.248V33.5703C83.168 34.3711 83.2493 35.0514 83.4121 35.6113C83.5814 36.1647 83.8581 36.5879 84.2422 36.8809C84.6328 37.1673 85.1602 37.3105 85.8242 37.3105C86.3841 37.3105 86.8464 37.1576 87.2109 36.8516C87.582 36.5456 87.8587 36.1094 88.041 35.543C88.2233 34.9766 88.3145 34.3092 88.3145 33.541C88.3145 32.3757 88.1061 31.4707 87.6895 30.8262C87.2793 30.1816 86.6478 29.8594 85.7949 29.8594ZM98.8711 27.9844C100.154 27.9844 101.182 28.4531 101.957 29.3906C102.738 30.3281 103.129 31.7214 103.129 33.5703C103.129 34.7943 102.947 35.8262 102.582 36.666C102.224 37.4993 101.719 38.1309 101.068 38.5605C100.424 38.9837 99.6719 39.1953 98.8125 39.1953C98.2656 39.1953 97.7904 39.1237 97.3867 38.9805C96.9831 38.8372 96.638 38.6517 96.3516 38.4238C96.0651 38.1895 95.8242 37.9355 95.6289 37.6621H95.4922C95.5247 37.9225 95.554 38.2122 95.5801 38.5312C95.6126 38.8438 95.6289 39.1302 95.6289 39.3906V43.7949H93.3242V28.1895H95.1992L95.5215 29.6836H95.6289C95.8307 29.3776 96.0749 29.0944 96.3613 28.834C96.6543 28.5736 97.0059 28.3685 97.416 28.2188C97.8327 28.0625 98.3177 27.9844 98.8711 27.9844ZM98.2559 29.8594C97.6243 29.8594 97.1165 29.9863 96.7324 30.2402C96.3548 30.4876 96.0781 30.862 95.9023 31.3633C95.7331 31.8646 95.6419 32.4928 95.6289 33.248V33.5703C95.6289 34.3711 95.7103 35.0514 95.873 35.6113C96.0423 36.1647 96.319 36.5879 96.7031 36.8809C97.0938 37.1673 97.6211 37.3105 98.2852 37.3105C98.8451 37.3105 99.3073 37.1576 99.6719 36.8516C100.043 36.5456 100.32 36.1094 100.502 35.543C100.684 34.9766 100.775 34.3092 100.775 33.541C100.775 32.3757 100.567 31.4707 100.15 30.8262C99.7402 30.1816 99.1087 29.8594 98.2559 29.8594ZM119.457 35.1133C119.457 35.9596 119.249 36.6888 118.832 37.3008C118.422 37.9128 117.829 38.3815 117.055 38.707C116.286 39.0326 115.368 39.1953 114.301 39.1953C113.78 39.1953 113.282 39.166 112.807 39.1074C112.331 39.0488 111.882 38.9642 111.459 38.8535C111.042 38.7363 110.661 38.5964 110.316 38.4336V36.2266C110.896 36.4805 111.544 36.7116 112.26 36.9199C112.976 37.1217 113.705 37.2227 114.447 37.2227C115.053 37.2227 115.554 37.1445 115.951 36.9883C116.355 36.8255 116.654 36.5977 116.85 36.3047C117.045 36.0052 117.143 35.6569 117.143 35.2598C117.143 34.8366 117.029 34.4785 116.801 34.1855C116.573 33.8926 116.228 33.6257 115.766 33.3848C115.31 33.1374 114.737 32.8737 114.047 32.5938C113.578 32.4049 113.129 32.1901 112.699 31.9492C112.276 31.7083 111.898 31.4251 111.566 31.0996C111.234 30.7741 110.971 30.39 110.775 29.9473C110.587 29.498 110.492 28.9707 110.492 28.3652C110.492 27.5579 110.684 26.8678 111.068 26.2949C111.459 25.722 112.006 25.2826 112.709 24.9766C113.419 24.6706 114.245 24.5176 115.189 24.5176C115.938 24.5176 116.641 24.5957 117.299 24.752C117.963 24.9082 118.614 25.1296 119.252 25.416L118.51 27.3008C117.924 27.0599 117.354 26.8678 116.801 26.7246C116.254 26.5814 115.694 26.5098 115.121 26.5098C114.626 26.5098 114.206 26.5846 113.861 26.7344C113.516 26.8841 113.253 27.0957 113.07 27.3691C112.895 27.6361 112.807 27.9551 112.807 28.3262C112.807 28.7428 112.908 29.0944 113.109 29.3809C113.318 29.6608 113.637 29.918 114.066 30.1523C114.503 30.3867 115.062 30.6471 115.746 30.9336C116.534 31.2591 117.201 31.6009 117.748 31.959C118.301 32.3171 118.725 32.7467 119.018 33.248C119.311 33.7428 119.457 34.3646 119.457 35.1133ZM126 37.3398C126.299 37.3398 126.596 37.3138 126.889 37.2617C127.182 37.2031 127.449 37.1348 127.689 37.0566V38.7949C127.436 38.9056 127.107 39 126.703 39.0781C126.299 39.1562 125.88 39.1953 125.443 39.1953C124.831 39.1953 124.281 39.0944 123.793 38.8926C123.305 38.6842 122.917 38.3294 122.631 37.8281C122.344 37.3268 122.201 36.6335 122.201 35.748V29.9375H120.727V28.9121L122.309 28.1016L123.061 25.7871H124.506V28.1895H127.602V29.9375H124.506V35.7188C124.506 36.2656 124.643 36.6725 124.916 36.9395C125.189 37.2064 125.551 37.3398 126 37.3398ZM139.457 33.5703C139.457 34.4688 139.34 35.2663 139.105 35.9629C138.871 36.6595 138.529 37.2487 138.08 37.7305C137.631 38.2057 137.09 38.5703 136.459 38.8242C135.827 39.0716 135.115 39.1953 134.32 39.1953C133.578 39.1953 132.898 39.0716 132.279 38.8242C131.661 38.5703 131.124 38.2057 130.668 37.7305C130.219 37.2487 129.87 36.6595 129.623 35.9629C129.376 35.2663 129.252 34.4688 129.252 33.5703C129.252 32.3789 129.457 31.3698 129.867 30.543C130.284 29.7096 130.876 29.0749 131.645 28.6387C132.413 28.2025 133.327 27.9844 134.389 27.9844C135.385 27.9844 136.264 28.2025 137.025 28.6387C137.787 29.0749 138.383 29.7096 138.812 30.543C139.242 31.3763 139.457 32.3854 139.457 33.5703ZM131.615 33.5703C131.615 34.3581 131.71 35.0319 131.898 35.5918C132.094 36.1517 132.393 36.5814 132.797 36.8809C133.201 37.1738 133.721 37.3203 134.359 37.3203C134.997 37.3203 135.518 37.1738 135.922 36.8809C136.326 36.5814 136.622 36.1517 136.811 35.5918C136.999 35.0319 137.094 34.3581 137.094 33.5703C137.094 32.7826 136.999 32.1152 136.811 31.5684C136.622 31.015 136.326 30.5951 135.922 30.3086C135.518 30.0156 134.994 29.8691 134.35 29.8691C133.399 29.8691 132.706 30.1882 132.27 30.8262C131.833 31.4642 131.615 32.3789 131.615 33.5703ZM147.572 27.9844C147.755 27.9844 147.953 27.9941 148.168 28.0137C148.383 28.0332 148.568 28.0592 148.725 28.0918L148.51 30.2402C148.373 30.2012 148.204 30.1719 148.002 30.1523C147.807 30.1328 147.631 30.123 147.475 30.123C147.064 30.123 146.674 30.1914 146.303 30.3281C145.932 30.4583 145.603 30.6602 145.316 30.9336C145.03 31.2005 144.805 31.5358 144.643 31.9395C144.48 32.3431 144.398 32.8118 144.398 33.3457V39H142.094V28.1895H143.891L144.203 30.0938H144.311C144.525 29.7096 144.792 29.3581 145.111 29.0391C145.43 28.7201 145.795 28.4661 146.205 28.2773C146.622 28.082 147.077 27.9844 147.572 27.9844ZM155.033 27.9844C155.997 27.9844 156.824 28.1829 157.514 28.5801C158.204 28.9772 158.734 29.5404 159.105 30.2695C159.477 30.9987 159.662 31.8711 159.662 32.8867V34.1172H152.445C152.471 35.1654 152.751 35.9727 153.285 36.5391C153.826 37.1055 154.581 37.3887 155.551 37.3887C156.241 37.3887 156.859 37.3236 157.406 37.1934C157.96 37.0566 158.529 36.8581 159.115 36.5977V38.4629C158.575 38.7168 158.025 38.9023 157.465 39.0195C156.905 39.1367 156.234 39.1953 155.453 39.1953C154.392 39.1953 153.458 38.9902 152.65 38.5801C151.85 38.1634 151.221 37.5449 150.766 36.7246C150.316 35.9043 150.092 34.8854 150.092 33.668C150.092 32.457 150.297 31.4284 150.707 30.582C151.117 29.7357 151.693 29.0911 152.436 28.6484C153.178 28.2057 154.044 27.9844 155.033 27.9844ZM155.033 29.7129C154.311 29.7129 153.725 29.9473 153.275 30.416C152.833 30.8848 152.572 31.5716 152.494 32.4766H157.416C157.41 31.9362 157.318 31.4577 157.143 31.041C156.973 30.6243 156.713 30.2988 156.361 30.0645C156.016 29.8301 155.574 29.7129 155.033 29.7129Z" fill="white"/>
<g clip-path="url(#clip0_200_787)">
<path d="M49.4354 12C47.4629 12.1364 45.1573 13.3991 43.8138 15.0432C42.5881 16.5348 41.5799 18.7501 41.973 20.9031C44.1283 20.9701 46.3552 19.6775 47.6456 18.0055C48.8527 16.4492 49.7661 14.2477 49.4354 12Z" fill="white"/>
<path d="M57.2314 24.4133C55.3375 22.0384 52.6758 20.6602 50.1622 20.6602C46.8438 20.6602 45.4401 22.2488 43.1345 22.2488C40.7573 22.2488 38.9512 20.6648 36.0814 20.6648C33.2625 20.6648 30.2609 22.3876 28.3577 25.3337C25.6822 29.4823 26.1401 37.2823 30.476 43.9261C32.0277 46.3033 34.0996 48.9766 36.8099 48.9997C39.2218 49.0228 39.9017 47.4526 43.1692 47.4364C46.4368 47.4179 47.0565 49.0205 49.4638 48.9951C52.1764 48.9742 54.3617 46.0119 55.9133 43.6347C57.0256 41.9304 57.4396 41.0725 58.3021 39.1485C52.0284 36.7597 51.0224 27.8381 57.2314 24.4133Z" fill="white"/>
</g>
<defs>
<clipPath id="clip0_200_787">
<rect width="37" height="37" fill="white" transform="translate(24 12)"/>
</clipPath>
</defs>
</svg>
