<svg width="540" height="644" viewBox="0 0 540 644" fill="none" xmlns="http://www.w3.org/2000/svg">
<mask id="mask0_6_293" style="mask-type:luminance" maskUnits="userSpaceOnUse" x="168" y="227" width="204" height="113">
<path d="M168.533 227.938H371.471V339.938H168.533V227.938Z" fill="white"/>
</mask>
<g mask="url(#mask0_6_293)">
<path d="M270.002 228.193C215.981 228.193 171.45 277.807 168.533 339.823H371.471C368.554 277.807 324.023 228.193 270.002 228.193Z" fill="#110E44"/>
</g>
<path d="M321.83 161.802C321.83 163.495 321.747 165.188 321.58 166.875C321.419 168.568 321.169 170.24 320.835 171.906C320.507 173.568 320.096 175.214 319.601 176.839C319.106 178.458 318.538 180.057 317.887 181.625C317.236 183.193 316.512 184.724 315.71 186.219C314.913 187.714 314.038 189.167 313.096 190.578C312.153 191.99 311.143 193.349 310.07 194.661C308.992 195.974 307.851 197.229 306.653 198.427C305.45 199.63 304.195 200.766 302.882 201.844C301.57 202.922 300.21 203.927 298.799 204.87C297.387 205.813 295.934 206.688 294.434 207.484C292.939 208.286 291.403 209.01 289.835 209.656C288.268 210.307 286.674 210.88 285.049 211.37C283.424 211.865 281.778 212.276 280.111 212.604C278.45 212.938 276.773 213.188 275.08 213.354C273.393 213.521 271.7 213.604 270.002 213.604C268.304 213.604 266.611 213.521 264.924 213.354C263.231 213.188 261.554 212.938 259.893 212.604C258.226 212.276 256.58 211.865 254.955 211.37C253.33 210.88 251.736 210.307 250.169 209.656C248.601 209.01 247.064 208.286 245.57 207.484C244.075 206.688 242.617 205.813 241.205 204.87C239.794 203.927 238.434 202.922 237.122 201.844C235.809 200.766 234.554 199.63 233.351 198.427C232.153 197.229 231.012 195.974 229.939 194.661C228.861 193.349 227.851 191.99 226.908 190.578C225.965 189.167 225.09 187.714 224.294 186.219C223.492 184.724 222.768 183.193 222.117 181.625C221.465 180.057 220.898 178.458 220.403 176.839C219.913 175.214 219.497 173.568 219.169 171.906C218.835 170.24 218.59 168.568 218.424 166.875C218.257 165.188 218.174 163.495 218.174 161.802C218.174 160.104 218.257 158.411 218.424 156.724C218.59 155.036 218.835 153.359 219.169 151.693C219.497 150.031 219.913 148.385 220.403 146.76C220.898 145.141 221.465 143.542 222.117 141.974C222.768 140.411 223.492 138.875 224.294 137.38C225.09 135.885 225.965 134.432 226.908 133.021C227.851 131.609 228.861 130.25 229.939 128.938C231.012 127.625 232.153 126.37 233.351 125.172C234.554 123.969 235.809 122.833 237.122 121.755C238.434 120.682 239.794 119.672 241.205 118.729C242.617 117.786 244.075 116.917 245.57 116.115C247.064 115.318 248.601 114.589 250.169 113.943C251.736 113.292 253.33 112.724 254.955 112.229C256.58 111.734 258.226 111.323 259.893 110.995C261.554 110.661 263.231 110.417 264.924 110.25C266.611 110.083 268.304 110 270.002 110C271.7 110 273.393 110.083 275.08 110.25C276.773 110.417 278.45 110.661 280.111 110.995C281.778 111.323 283.424 111.734 285.049 112.229C286.674 112.724 288.268 113.292 289.835 113.943C291.403 114.589 292.939 115.318 294.434 116.115C295.934 116.917 297.387 117.786 298.799 118.729C300.21 119.672 301.57 120.682 302.882 121.755C304.195 122.833 305.45 123.969 306.653 125.172C307.851 126.37 308.992 127.625 310.07 128.938C311.143 130.25 312.153 131.609 313.096 133.021C314.038 134.432 314.913 135.885 315.71 137.38C316.512 138.875 317.236 140.411 317.887 141.974C318.538 143.542 319.106 145.141 319.601 146.76C320.096 148.385 320.507 150.031 320.835 151.693C321.169 153.359 321.419 155.036 321.58 156.724C321.747 158.411 321.83 160.104 321.83 161.802Z" fill="#110E44"/>
<path d="M67.6061 335.677H469.814C502.033 335.677 528.153 361.937 528.153 394.333V475.859C528.153 508.25 502.033 534.516 469.814 534.516H67.6061C35.3874 534.516 9.26758 508.25 9.26758 475.859V394.333C9.26758 361.937 35.3874 335.677 67.6061 335.677Z" fill="#100C59"/>
<path d="M68.1694 382.119H88.6694V453.973H133.086V470.681H68.1694V382.119Z" fill="#EBECF0"/>
<path d="M187.487 472.202C178.289 472.202 169.998 470.223 162.612 466.264C155.237 462.296 149.456 456.827 145.279 449.869C141.112 442.91 139.029 435.087 139.029 426.389C139.029 417.712 141.112 409.889 145.279 402.931C149.456 395.973 155.237 390.514 162.612 386.556C169.998 382.587 178.289 380.598 187.487 380.598C196.68 380.598 204.946 382.587 212.279 386.556C219.612 390.514 225.388 395.973 229.612 402.931C233.831 409.889 235.946 417.712 235.946 426.389C235.946 435.087 233.831 442.91 229.612 449.869C225.388 456.827 219.612 462.296 212.279 466.264C204.946 470.223 196.68 472.202 187.487 472.202ZM187.487 454.744C192.706 454.744 197.43 453.546 201.654 451.139C205.873 448.738 209.185 445.384 211.592 441.077C213.993 436.775 215.196 431.879 215.196 426.389C215.196 420.921 213.993 416.03 211.592 411.723C209.185 407.421 205.873 404.067 201.654 401.66C197.43 399.259 192.706 398.056 187.487 398.056C182.248 398.056 177.519 399.259 173.3 401.66C169.092 404.067 165.784 407.421 163.383 411.723C160.977 416.03 159.779 420.921 159.779 426.389C159.779 431.879 160.977 436.775 163.383 441.077C165.784 445.384 169.092 448.738 173.3 451.139C177.519 453.546 182.248 454.744 187.487 454.744Z" fill="#EBECF0"/>
<path d="M311.235 425.014H329.943V460.931C325.136 464.572 319.568 467.363 313.235 469.306C306.912 471.233 300.552 472.202 294.151 472.202C284.953 472.202 276.682 470.244 269.339 466.327C262.005 462.4 256.245 456.952 252.068 449.994C247.901 443.035 245.818 435.171 245.818 426.389C245.818 417.629 247.901 409.764 252.068 402.806C256.245 395.848 262.047 390.41 269.464 386.494C276.891 382.567 285.245 380.598 294.526 380.598C302.287 380.598 309.328 381.91 315.651 384.535C321.985 387.15 327.297 390.942 331.589 395.91L318.443 408.056C312.11 401.389 304.474 398.056 295.547 398.056C289.891 398.056 284.87 399.238 280.485 401.598C276.094 403.962 272.677 407.296 270.235 411.598C267.787 415.905 266.568 420.837 266.568 426.389C266.568 431.879 267.787 436.775 270.235 441.077C272.677 445.384 276.073 448.738 280.422 451.139C284.766 453.546 289.719 454.744 295.276 454.744C301.177 454.744 306.495 453.483 311.235 450.952V425.014Z" fill="#EBECF0"/>
<path d="M348.932 382.119H369.432V470.681H348.932V382.119Z" fill="#EBECF0"/>
<path d="M471.663 382.119V470.681H454.829L410.683 416.91V470.681H390.433V382.119H407.392L451.413 435.889V382.119H471.663Z" fill="#EBECF0"/>
</svg>
