<svg width="541" height="644" viewBox="0 0 541 644" fill="none" xmlns="http://www.w3.org/2000/svg">
<mask id="mask0_6_291" style="mask-type:luminance" maskUnits="userSpaceOnUse" x="109" y="123" width="267" height="245">
<path d="M109.458 123.869H375.657V367.801H109.458V123.869Z" fill="white"/>
</mask>
<g mask="url(#mask0_6_291)">
<path d="M353.819 331.854C353.819 339.702 347.391 346.136 339.549 346.136H192.837C184.989 346.136 178.537 339.702 178.537 331.854V324.291H286.348C305.115 324.291 323.852 309.729 328.629 290.962L353.533 198.004V331.854H353.819ZM139.897 302.452C137.657 302.452 134.865 301.887 133.19 299.641C131.509 297.675 131.229 294.604 132.34 290.962L160.91 183.982H335.057L307.901 285.365C305.395 294.318 295.592 302.452 286.608 302.452H139.897ZM339.549 124.068H327.779L324.423 136.383C321.352 147.582 310.712 155.976 299.488 155.976C293.346 155.976 287.458 153.47 284.102 148.692C280.466 143.946 279.355 137.494 281.006 131.345L282.972 124.068H244.897L241.541 136.383C238.47 147.582 227.811 155.976 216.351 155.976C210.184 155.976 204.582 153.47 200.94 148.692C197.304 143.946 196.194 137.494 197.869 131.345L199.83 124.068H187.496C168.753 124.068 149.991 138.623 145.214 157.391L110.787 285.365C107.97 295.454 109.651 305.523 115.533 312.807C121.135 320.084 129.809 324.291 139.618 324.291H156.704V331.854C156.704 351.732 172.94 367.975 192.813 367.975H339.549C359.421 367.975 375.657 351.732 375.657 331.854V160.183C375.657 140.304 359.421 124.068 339.549 124.068Z" fill="#110E44"/>
</g>
<mask id="mask1_6_291" style="mask-type:luminance" maskUnits="userSpaceOnUse" x="206" y="107" width="31" height="40">
<path d="M206.505 107H236.682V146.105H206.505V107Z" fill="white"/>
</mask>
<g mask="url(#mask1_6_291)">
<path d="M216.637 145.907C223.344 145.907 230.057 140.59 231.738 133.852L235.659 119.03C237.334 112.292 233.413 106.975 226.985 106.975C220.272 106.975 213.541 112.292 211.859 119.03L207.938 133.852C206.257 140.304 210.184 145.907 216.637 145.907Z" fill="#110E44"/>
</g>
<mask id="mask2_6_291" style="mask-type:luminance" maskUnits="userSpaceOnUse" x="289" y="107" width="31" height="40">
<path d="M289.096 107H319.273V146.105H289.096V107Z" fill="white"/>
</mask>
<g mask="url(#mask2_6_291)">
<path d="M299.488 145.907C306.226 145.907 312.939 140.59 314.614 133.852L318.535 119.03C320.216 112.292 316.289 106.975 309.861 106.975C303.155 106.975 296.417 112.292 294.742 119.03L290.529 133.852C288.854 140.304 292.775 145.907 299.488 145.907Z" fill="#110E44"/>
</g>
<path d="M253.595 218.993L222.493 243.642L216.891 236.079C213.255 231.308 206.542 230.197 201.51 233.833C196.733 237.475 195.623 244.188 199.265 249.244L211.574 265.766C213.255 268.273 216.066 269.694 218.858 270.233H220.272C222.779 270.233 225.025 269.408 226.985 268.012L267.015 236.364C271.792 232.723 272.617 225.73 268.696 220.953C265.054 215.915 258.347 215.065 253.595 218.993Z" fill="#110E44"/>
<path d="M51.542 364.016H490.088C518.206 364.016 541 386.922 541 415.183V486.302C541 514.562 518.206 537.468 490.088 537.468H51.542C23.4245 537.468 0.630127 514.562 0.630127 486.302V415.183C0.630127 386.922 23.4245 364.016 51.542 364.016Z" fill="#100C59"/>
<path d="M112.315 467.442V481.786H52.4812V404.506H110.875V418.875H70.2501V435.651H106.135V449.549H70.2501V467.442H112.315Z" fill="#EBECF0"/>
<path d="M200.846 404.506L167.393 481.786H149.723L116.394 404.506H135.702L159.228 459.699L183.077 404.506H200.846Z" fill="#EBECF0"/>
<path d="M268.719 467.442V481.786H208.885V404.506H267.279V418.875H226.654V435.651H262.539V449.549H226.654V467.442H268.719Z" fill="#EBECF0"/>
<path d="M353.825 404.506V481.786H339.133L300.618 434.882V481.786H282.948V404.506H297.739L336.155 451.435V404.506H353.825Z" fill="#EBECF0"/>
<path d="M388.139 419.098H363.422V404.506H430.75V419.098H406.032V481.786H388.139V419.098Z" fill="#EBECF0"/>
<path d="M465.733 483.101C459.628 483.101 453.722 482.27 448.014 480.62C442.318 478.969 437.746 476.816 434.29 474.167L440.345 460.692C443.652 463.124 447.592 465.078 452.158 466.548C456.725 468.025 461.291 468.757 465.857 468.757C470.932 468.757 474.68 468.006 477.099 466.499C479.531 464.997 480.747 462.993 480.747 460.493C480.747 458.644 480.028 457.112 478.588 455.902C477.161 454.698 475.325 453.73 473.079 452.998C470.827 452.254 467.793 451.435 463.971 450.541C458.077 449.152 453.256 447.762 449.503 446.372C445.762 444.97 442.542 442.718 439.849 439.622C437.169 436.532 435.829 432.413 435.829 427.263C435.829 422.765 437.032 418.695 439.452 415.053C441.884 411.418 445.545 408.526 450.446 406.392C455.341 404.258 461.322 403.191 468.388 403.191C473.315 403.191 478.129 403.78 482.832 404.953C487.547 406.132 491.673 407.825 495.216 410.04L489.681 423.615C482.547 419.564 475.418 417.535 468.289 417.535C463.276 417.535 459.566 418.348 457.171 419.967C454.789 421.593 453.598 423.727 453.598 426.37C453.598 429.019 454.975 430.986 457.742 432.276C460.503 433.567 464.716 434.845 470.374 436.098C476.262 437.488 481.082 438.89 484.842 440.292C488.596 441.682 491.816 443.891 494.496 446.918C497.176 449.933 498.516 454.01 498.516 459.153C498.516 463.57 497.282 467.603 494.819 471.239C492.349 474.881 488.651 477.766 483.725 479.9C478.793 482.034 472.793 483.101 465.733 483.101Z" fill="#EBECF0"/>
</svg>
