<svg width="23" height="23" viewBox="0 0 23 23" fill="none" xmlns="http://www.w3.org/2000/svg">
<circle cx="11.5" cy="11.5" r="11.5" fill="#121039"/>
<path d="M8.02 7.78C8.45333 7.78 8.79 7.82333 9.03 7.91C9.27 7.99667 9.47333 8.08667 9.64 8.18C9.72 8.22667 9.78333 8.26333 9.83 8.29C9.88333 8.31 9.93333 8.32 9.98 8.32C10.0467 8.32 10.0933 8.28333 10.12 8.21C10.1533 8.13667 10.18 8.02667 10.2 7.88H10.43C10.4233 8.02 10.4133 8.18333 10.4 8.37C10.3933 8.55667 10.3867 8.80333 10.38 9.11C10.38 9.41667 10.38 9.82 10.38 10.32H10.15C10.1233 9.95333 10.0367 9.59667 9.89 9.25C9.75 8.90333 9.55333 8.61667 9.3 8.39C9.05333 8.16333 8.75667 8.05 8.41 8.05C8.11667 8.05 7.87333 8.13 7.68 8.29C7.48667 8.45 7.39 8.68 7.39 8.98C7.39 9.22667 7.45 9.44 7.57 9.62C7.69 9.79333 7.87667 9.97667 8.13 10.17C8.39 10.3633 8.73 10.6067 9.15 10.9C9.45 11.1067 9.72 11.3133 9.96 11.52C10.2067 11.7267 10.4033 11.96 10.55 12.22C10.6967 12.48 10.77 12.7933 10.77 13.16C10.77 13.6067 10.6433 13.9767 10.39 14.27C10.1433 14.5633 9.81333 14.7833 9.4 14.93C8.98667 15.07 8.53667 15.14 8.05 15.14C7.59667 15.14 7.23333 15.1 6.96 15.02C6.69333 14.94 6.46667 14.8567 6.28 14.77C6.13333 14.6767 6.02 14.63 5.94 14.63C5.87333 14.63 5.82333 14.6667 5.79 14.74C5.76333 14.8133 5.74 14.9233 5.72 15.07H5.49C5.50333 14.8967 5.51 14.6967 5.51 14.47C5.51667 14.2367 5.52 13.9367 5.52 13.57C5.52667 13.2033 5.53 12.7367 5.53 12.17H5.76C5.78667 12.6367 5.86 13.0733 5.98 13.48C6.10667 13.8867 6.29667 14.2167 6.55 14.47C6.81 14.7167 7.15333 14.84 7.58 14.84C7.82667 14.84 8.03667 14.8033 8.21 14.73C8.39 14.65 8.53 14.5367 8.63 14.39C8.73 14.2433 8.78 14.0667 8.78 13.86C8.78 13.58 8.71667 13.3367 8.59 13.13C8.46333 12.9167 8.29 12.72 8.07 12.54C7.85667 12.3533 7.60667 12.1667 7.32 11.98C7.00667 11.7667 6.71333 11.5533 6.44 11.34C6.16667 11.1267 5.94667 10.8867 5.78 10.62C5.62 10.3533 5.54 10.0367 5.54 9.67C5.54 9.23 5.65667 8.87333 5.89 8.6C6.12333 8.32 6.43 8.11333 6.81 7.98C7.19 7.84667 7.59333 7.78 8.02 7.78ZM14.4928 7.91V8.12C14.2128 8.12 14.0261 8.14333 13.9328 8.19C13.8461 8.23667 13.8495 8.32667 13.9428 8.46L18.0528 14.29C18.1861 14.4767 18.2895 14.6033 18.3628 14.67C18.4428 14.7367 18.5461 14.7767 18.6728 14.79V15C18.5061 14.9933 18.2628 14.9867 17.9428 14.98C17.6228 14.9667 17.2961 14.96 16.9628 14.96C16.6361 14.96 16.3061 14.9667 15.9728 14.98C15.6395 14.9867 15.3895 14.9933 15.2228 15V14.79C15.5028 14.79 15.6861 14.7667 15.7728 14.72C15.8661 14.6733 15.8661 14.5833 15.7728 14.45L11.6928 8.62C11.5595 8.42667 11.4561 8.29667 11.3828 8.23C11.3095 8.16333 11.2061 8.12667 11.0728 8.12V7.91C11.2461 7.91667 11.5028 7.92667 11.8428 7.94C12.1895 7.94667 12.5361 7.95 12.8828 7.95C13.1961 7.95 13.5028 7.94667 13.8028 7.94C14.1095 7.92667 14.3395 7.91667 14.4928 7.91ZM14.2728 11.5C14.2728 11.5 14.2795 11.5233 14.2928 11.57C14.3061 11.61 14.3195 11.6533 14.3328 11.7C14.3461 11.74 14.3528 11.76 14.3528 11.76L13.4928 12.83C13.2128 13.1833 13.0461 13.5067 12.9928 13.8C12.9461 14.0867 12.9961 14.32 13.1428 14.5C13.2895 14.6733 13.5128 14.7733 13.8128 14.8V15C13.7195 14.9933 13.5928 14.99 13.4328 14.99C13.2728 14.9833 13.1028 14.98 12.9228 14.98C12.7495 14.9733 12.5861 14.97 12.4328 14.97C12.2795 14.97 12.1628 14.97 12.0828 14.97C11.8761 14.97 11.6895 14.9733 11.5228 14.98C11.3628 14.98 11.2261 14.9867 11.1128 15V14.8C11.3661 14.6933 11.6328 14.5233 11.9128 14.29C12.1928 14.05 12.4795 13.7467 12.7728 13.38L14.2728 11.5ZM18.0628 7.92V8.12C17.8361 8.20667 17.5995 8.36 17.3528 8.58C17.1128 8.79333 16.8995 9.01667 16.7128 9.25L15.0828 11.25C15.0828 11.25 15.0695 11.21 15.0428 11.13C15.0161 11.0433 15.0028 11 15.0028 11L15.9628 9.82C16.2228 9.52 16.3795 9.24667 16.4328 9C16.4928 8.74667 16.4628 8.54333 16.3428 8.39C16.2228 8.23 16.0295 8.14 15.7628 8.12V7.92C15.8895 7.92667 16.0361 7.93333 16.2028 7.94C16.3695 7.94 16.5328 7.94333 16.6928 7.95C16.8528 7.95 16.9861 7.95 17.0928 7.95C17.2995 7.95 17.4861 7.94667 17.6528 7.94C17.8195 7.93333 17.9561 7.92667 18.0628 7.92Z" fill="#FF5C00"/>
</svg>
