<svg width="185" height="60" viewBox="0 0 185 60" fill="none" xmlns="http://www.w3.org/2000/svg">
<rect width="185" height="60" rx="5" fill="#2B2B2B"/>
<path d="M64.3175 28.281L59.3048 25.3857L54.1729 30.5176L59.3044 35.6492L64.3345 32.7443C65.1189 32.2677 65.587 31.4352 65.587 30.5176C65.587 29.6 65.1186 28.7675 64.3175 28.281Z" fill="#FFCE00"/>
<path d="M54.1728 30.5173L40.1945 16.4385C39.7083 16.9247 39.4131 17.5844 39.4131 18.3136V42.6781C39.4131 43.4074 39.7083 44.0671 40.1945 44.5537L54.1728 30.5173Z" fill="url(#paint0_linear_200_777)"/>
<path d="M54.1726 30.5177L59.3045 25.3858L59.3126 25.3776L52.4365 21.4186L43.3723 16.0914C42.556 15.5878 41.5663 15.5704 40.7327 16.0392C40.5418 16.1606 40.3679 16.2823 40.1943 16.4384L54.1726 30.5177Z" fill="#00F076"/>
<path d="M40.1943 44.5535C40.3679 44.7097 40.5418 44.8314 40.7327 44.9528C41.1493 45.1785 41.5837 45.3002 42.0177 45.3002C42.4865 45.3002 42.9379 45.1614 43.3549 44.9183L52.4362 39.6166L59.3122 35.6576L59.3041 35.6495L54.1726 30.5176L40.1943 44.5535Z" fill="#F63448"/>
<path d="M83.6367 30.2461H88.9688V37.4141C88.2201 37.6615 87.4453 37.8535 86.6445 37.9902C85.8438 38.127 84.9453 38.1953 83.9492 38.1953C82.4974 38.1953 81.2669 37.9089 80.2578 37.3359C79.2552 36.7565 78.4935 35.9199 77.9727 34.8262C77.4518 33.7259 77.1914 32.401 77.1914 30.8516C77.1914 29.3607 77.4811 28.0684 78.0605 26.9746C78.64 25.8743 79.4831 25.0247 80.5898 24.4258C81.6966 23.8203 83.0378 23.5176 84.6133 23.5176C85.388 23.5176 86.1367 23.5957 86.8594 23.752C87.5885 23.9017 88.2559 24.11 88.8613 24.377L88.041 26.3105C87.5592 26.0827 87.0189 25.8906 86.4199 25.7344C85.821 25.5781 85.1992 25.5 84.5547 25.5C83.5326 25.5 82.6504 25.7214 81.9082 26.1641C81.1725 26.6068 80.6061 27.2318 80.209 28.0391C79.8118 28.8398 79.6133 29.7871 79.6133 30.8809C79.6133 31.9421 79.7728 32.873 80.0918 33.6738C80.4108 34.4746 80.9089 35.0996 81.5859 35.5488C82.2695 35.9915 83.1517 36.2129 84.2324 36.2129C84.7728 36.2129 85.2318 36.1836 85.6094 36.125C85.987 36.0664 86.3353 36.0013 86.6543 35.9297V32.248H83.6367V30.2461ZM101.723 32.5703C101.723 33.4688 101.605 34.2663 101.371 34.9629C101.137 35.6595 100.795 36.2487 100.346 36.7305C99.8965 37.2057 99.3561 37.5703 98.7246 37.8242C98.0931 38.0716 97.3802 38.1953 96.5859 38.1953C95.8438 38.1953 95.1634 38.0716 94.5449 37.8242C93.9264 37.5703 93.3893 37.2057 92.9336 36.7305C92.4844 36.2487 92.1361 35.6595 91.8887 34.9629C91.6413 34.2663 91.5176 33.4688 91.5176 32.5703C91.5176 31.3789 91.7227 30.3698 92.1328 29.543C92.5495 28.7096 93.1419 28.0749 93.9102 27.6387C94.6784 27.2025 95.5931 26.9844 96.6543 26.9844C97.6504 26.9844 98.5293 27.2025 99.291 27.6387C100.053 28.0749 100.648 28.7096 101.078 29.543C101.508 30.3763 101.723 31.3854 101.723 32.5703ZM93.8809 32.5703C93.8809 33.3581 93.9753 34.0319 94.1641 34.5918C94.3594 35.1517 94.6589 35.5814 95.0625 35.8809C95.4661 36.1738 95.987 36.3203 96.625 36.3203C97.263 36.3203 97.7839 36.1738 98.1875 35.8809C98.5911 35.5814 98.8874 35.1517 99.0762 34.5918C99.265 34.0319 99.3594 33.3581 99.3594 32.5703C99.3594 31.7826 99.265 31.1152 99.0762 30.5684C98.8874 30.015 98.5911 29.5951 98.1875 29.3086C97.7839 29.0156 97.2598 28.8691 96.6152 28.8691C95.6647 28.8691 94.9714 29.1882 94.5352 29.8262C94.099 30.4642 93.8809 31.3789 93.8809 32.5703ZM113.93 32.5703C113.93 33.4688 113.812 34.2663 113.578 34.9629C113.344 35.6595 113.002 36.2487 112.553 36.7305C112.104 37.2057 111.563 37.5703 110.932 37.8242C110.3 38.0716 109.587 38.1953 108.793 38.1953C108.051 38.1953 107.37 38.0716 106.752 37.8242C106.133 37.5703 105.596 37.2057 105.141 36.7305C104.691 36.2487 104.343 35.6595 104.096 34.9629C103.848 34.2663 103.725 33.4688 103.725 32.5703C103.725 31.3789 103.93 30.3698 104.34 29.543C104.757 28.7096 105.349 28.0749 106.117 27.6387C106.885 27.2025 107.8 26.9844 108.861 26.9844C109.857 26.9844 110.736 27.2025 111.498 27.6387C112.26 28.0749 112.855 28.7096 113.285 29.543C113.715 30.3763 113.93 31.3854 113.93 32.5703ZM106.088 32.5703C106.088 33.3581 106.182 34.0319 106.371 34.5918C106.566 35.1517 106.866 35.5814 107.27 35.8809C107.673 36.1738 108.194 36.3203 108.832 36.3203C109.47 36.3203 109.991 36.1738 110.395 35.8809C110.798 35.5814 111.094 35.1517 111.283 34.5918C111.472 34.0319 111.566 33.3581 111.566 32.5703C111.566 31.7826 111.472 31.1152 111.283 30.5684C111.094 30.015 110.798 29.5951 110.395 29.3086C109.991 29.0156 109.467 28.8691 108.822 28.8691C107.872 28.8691 107.178 29.1882 106.742 29.8262C106.306 30.4642 106.088 31.3789 106.088 32.5703ZM119.652 42.8047C118.188 42.8047 117.064 42.541 116.283 42.0137C115.502 41.4863 115.111 40.7474 115.111 39.7969C115.111 39.1328 115.32 38.5697 115.736 38.1074C116.153 37.6517 116.749 37.3359 117.523 37.1602C117.23 37.0299 116.977 36.8281 116.762 36.5547C116.553 36.2747 116.449 35.9655 116.449 35.627C116.449 35.2233 116.563 34.8783 116.791 34.5918C117.019 34.3053 117.361 34.0286 117.816 33.7617C117.25 33.5208 116.794 33.1302 116.449 32.5898C116.111 32.043 115.941 31.4017 115.941 30.666C115.941 29.8848 116.107 29.2207 116.439 28.6738C116.771 28.1204 117.257 27.7005 117.895 27.4141C118.533 27.1211 119.304 26.9746 120.209 26.9746C120.404 26.9746 120.616 26.9876 120.844 27.0137C121.078 27.0332 121.293 27.0592 121.488 27.0918C121.69 27.1178 121.843 27.1471 121.947 27.1797H125.688V28.459L123.852 28.8008C124.027 29.0482 124.167 29.3314 124.271 29.6504C124.376 29.9629 124.428 30.3047 124.428 30.6758C124.428 31.7956 124.04 32.6777 123.266 33.3223C122.497 33.9603 121.436 34.2793 120.082 34.2793C119.757 34.2663 119.441 34.2402 119.135 34.2012C118.9 34.3444 118.721 34.5039 118.598 34.6797C118.474 34.849 118.412 35.041 118.412 35.2559C118.412 35.4316 118.474 35.5749 118.598 35.6855C118.721 35.7897 118.904 35.8678 119.145 35.9199C119.392 35.972 119.691 35.998 120.043 35.998H121.908C123.093 35.998 123.998 36.2487 124.623 36.75C125.248 37.2513 125.561 37.987 125.561 38.957C125.561 40.1875 125.053 41.1348 124.037 41.7988C123.021 42.4694 121.56 42.8047 119.652 42.8047ZM119.74 41.1934C120.541 41.1934 121.215 41.1152 121.762 40.959C122.309 40.8027 122.722 40.5781 123.002 40.2852C123.282 39.9987 123.422 39.6569 123.422 39.2598C123.422 38.9082 123.334 38.638 123.158 38.4492C122.982 38.2604 122.719 38.1302 122.367 38.0586C122.016 37.987 121.579 37.9512 121.059 37.9512H119.359C118.936 37.9512 118.562 38.0163 118.236 38.1465C117.911 38.2832 117.657 38.4785 117.475 38.7324C117.299 38.9863 117.211 39.2923 117.211 39.6504C117.211 40.1452 117.429 40.526 117.865 40.793C118.308 41.0599 118.933 41.1934 119.74 41.1934ZM120.189 32.7754C120.86 32.7754 121.358 32.5931 121.684 32.2285C122.009 31.8574 122.172 31.3366 122.172 30.666C122.172 29.9368 122.003 29.39 121.664 29.0254C121.332 28.6608 120.837 28.4785 120.18 28.4785C119.535 28.4785 119.044 28.6641 118.705 29.0352C118.373 29.4062 118.207 29.9564 118.207 30.6855C118.207 31.3431 118.373 31.8574 118.705 32.2285C119.044 32.5931 119.538 32.7754 120.189 32.7754ZM129.965 38H127.66V22.8047H129.965V38ZM137.553 26.9844C138.516 26.9844 139.343 27.1829 140.033 27.5801C140.723 27.9772 141.254 28.5404 141.625 29.2695C141.996 29.9987 142.182 30.8711 142.182 31.8867V33.1172H134.965C134.991 34.1654 135.271 34.9727 135.805 35.5391C136.345 36.1055 137.1 36.3887 138.07 36.3887C138.76 36.3887 139.379 36.3236 139.926 36.1934C140.479 36.0566 141.049 35.8581 141.635 35.5977V37.4629C141.094 37.7168 140.544 37.9023 139.984 38.0195C139.424 38.1367 138.754 38.1953 137.973 38.1953C136.911 38.1953 135.977 37.9902 135.17 37.5801C134.369 37.1634 133.741 36.5449 133.285 35.7246C132.836 34.9043 132.611 33.8854 132.611 32.668C132.611 31.457 132.816 30.4284 133.227 29.582C133.637 28.7357 134.213 28.0911 134.955 27.6484C135.697 27.2057 136.563 26.9844 137.553 26.9844ZM137.553 28.7129C136.83 28.7129 136.244 28.9473 135.795 29.416C135.352 29.8848 135.092 30.5716 135.014 31.4766H139.936C139.929 30.9362 139.838 30.4577 139.662 30.041C139.493 29.6243 139.232 29.2988 138.881 29.0645C138.536 28.8301 138.093 28.7129 137.553 28.7129Z" fill="white"/>
<defs>
<linearGradient id="paint0_linear_200_777" x1="33.166" y1="37.5248" x2="47.2234" y2="23.467" gradientUnits="userSpaceOnUse">
<stop stop-color="#00E2FF"/>
<stop offset="1" stop-color="#00C5FF"/>
</linearGradient>
</defs>
</svg>
