<svg width="40" height="40" viewBox="0 0 40 40" fill="none" xmlns="http://www.w3.org/2000/svg">
<path d="M36.234 4.71866C36.0678 4.02241 35.3028 3.54866 34.609 3.79491C34.609 3.79491 4.55775 14.4012 4.55275 14.4049C4.0915 14.5762 3.75275 15.0162 3.72775 15.5199C3.70525 16.0037 4.004 16.5074 4.44525 16.7124L16.0853 22.1462C16.0853 22.1462 21.7565 16.4749 21.7665 16.4649C22.8915 15.3399 24.6878 17.0799 23.534 18.2324L17.8528 23.9137C17.8528 23.9137 23.279 35.5412 23.289 35.5599C23.5103 35.9849 23.9428 36.2549 24.4178 36.2762C24.934 36.2999 25.4115 35.9049 25.5965 35.4424C25.5965 35.4424 36.1965 5.40866 36.2028 5.38991C36.2815 5.17366 36.2865 4.93991 36.234 4.71866Z" fill="white"/>
</svg>
